<svg width="141" height="146" viewBox="0 0 141 146" fill="none" xmlns="http://www.w3.org/2000/svg">
<path d="M119.85 35H116.325L92.3594 5.25438C91.0381 3.61503 89.3624 2.29164 87.4564 1.38213C85.5504 0.472623 83.4629 0.000262521 81.3482 0H34.2211C28.4556 0 23.2716 3.48469 21.1302 8.80031L10.575 35.4944C4.50319 37.0562 0 42.4834 0 49V73.5C0 75.4338 1.57744 77 3.525 77H14.1C14.1 88.5981 23.569 98 35.25 98C46.931 98 56.4 88.5981 56.4 77H84.6C84.6 88.5981 94.069 98 105.75 98C117.431 98 126.9 88.5981 126.9 77H137.475C139.423 77 141 75.4338 141 73.5V56C141 44.4019 131.531 35 119.85 35ZM35.25 87.5C29.4183 87.5 24.675 82.7903 24.675 77C24.675 71.2097 29.4183 66.5 35.25 66.5C41.0817 66.5 45.825 71.2097 45.825 77C45.825 82.7903 41.0817 87.5 35.25 87.5ZM51.1125 35H25.7611L34.2211 14H51.1125V35ZM61.6875 35V14H81.3482L98.2682 35H61.6875ZM105.75 87.5C99.9183 87.5 95.175 82.7903 95.175 77C95.175 71.2097 99.9183 66.5 105.75 66.5C111.582 66.5 116.325 71.2097 116.325 77C116.325 82.7903 111.582 87.5 105.75 87.5Z" fill="white"/>
<path d="M12.296 132.24C11.176 132.24 10.192 132.032 9.344 131.616C8.512 131.184 7.864 130.584 7.4 129.816C6.952 129.032 6.728 128.112 6.728 127.056V119.424C6.728 118.352 6.952 117.432 7.4 116.664C7.864 115.896 8.512 115.304 9.344 114.888C10.192 114.456 11.176 114.24 12.296 114.24C13.432 114.24 14.408 114.456 15.224 114.888C16.056 115.304 16.704 115.896 17.168 116.664C17.632 117.432 17.864 118.352 17.864 119.424H14.84C14.84 118.592 14.616 117.96 14.168 117.528C13.736 117.096 13.112 116.88 12.296 116.88C11.48 116.88 10.848 117.096 10.4 117.528C9.952 117.96 9.728 118.584 9.728 119.4V127.056C9.728 127.872 9.952 128.504 10.4 128.952C10.848 129.384 11.48 129.6 12.296 129.6C13.112 129.6 13.736 129.384 14.168 128.952C14.616 128.504 14.84 127.872 14.84 127.056H17.864C17.864 128.096 17.632 129.008 17.168 129.792C16.704 130.576 16.056 131.184 15.224 131.616C14.408 132.032 13.432 132.24 12.296 132.24ZM20.2306 132L24.6466 114.48H28.5106L32.9506 132H29.8786L28.9186 127.752H24.2626L23.3026 132H20.2306ZM24.8146 125.304H28.3666L27.3106 120.6C27.1346 119.816 26.9826 119.112 26.8546 118.488C26.7266 117.848 26.6386 117.384 26.5906 117.096C26.5426 117.384 26.4546 117.848 26.3266 118.488C26.2146 119.112 26.0626 119.808 25.8706 120.576L24.8146 125.304ZM35.6053 132V114.48H41.1493C42.3173 114.48 43.3253 114.696 44.1733 115.128C45.0373 115.56 45.7093 116.168 46.1893 116.952C46.6693 117.72 46.9093 118.632 46.9093 119.688C46.9093 120.84 46.6133 121.856 46.0213 122.736C45.4453 123.616 44.6613 124.24 43.6693 124.608L47.1493 132H43.7893L40.7413 125.04H38.6053V132H35.6053ZM38.6053 122.4H41.1493C41.9973 122.4 42.6613 122.168 43.1413 121.704C43.6213 121.24 43.8613 120.6 43.8613 119.784C43.8613 118.952 43.6213 118.304 43.1413 117.84C42.6613 117.36 41.9973 117.12 41.1493 117.12H38.6053V122.4ZM68.1545 132.24C66.7145 132.24 65.5945 131.84 64.7945 131.04C63.9945 130.24 63.5945 129.136 63.5945 127.728V125.496C63.5945 124.424 63.8585 123.544 64.3865 122.856C64.9305 122.168 65.6985 121.744 66.6905 121.584L66.3785 122.232C65.8825 121.544 65.4985 120.872 65.2265 120.216C64.9705 119.56 64.8425 118.912 64.8425 118.272C64.8425 117.472 65.0345 116.776 65.4185 116.184C65.8025 115.576 66.3385 115.104 67.0265 114.768C67.7145 114.416 68.5225 114.24 69.4505 114.24C70.4105 114.24 71.2425 114.424 71.9465 114.792C72.6665 115.16 73.2185 115.672 73.6025 116.328C74.0025 116.968 74.2025 117.728 74.2025 118.608H71.4185C71.4185 118.224 71.3385 117.888 71.1785 117.6C71.0185 117.312 70.7865 117.096 70.4825 116.952C70.1945 116.792 69.8505 116.712 69.4505 116.712C69.0665 116.712 68.7305 116.784 68.4425 116.928C68.1545 117.072 67.9305 117.28 67.7705 117.552C67.6265 117.824 67.5545 118.144 67.5545 118.512C67.5545 118.896 67.6505 119.32 67.8425 119.784C68.0505 120.248 68.3305 120.72 68.6825 121.2L71.9945 125.88L73.3145 123.36H76.2185L73.6505 128.232L76.3385 132H73.3385L72.2105 130.416C71.0905 131.632 69.7385 132.24 68.1545 132.24ZM68.3945 129.768C68.8585 129.768 69.2905 129.64 69.6905 129.384C70.0905 129.128 70.4345 128.776 70.7225 128.328L67.4345 123.72C67.0985 123.848 66.8505 124.064 66.6905 124.368C66.5305 124.656 66.4505 125.032 66.4505 125.496V127.728C66.4505 128.368 66.6185 128.872 66.9545 129.24C67.3065 129.592 67.7865 129.768 68.3945 129.768ZM98.6398 132.24C97.5198 132.24 96.5358 132.032 95.6878 131.616C94.8558 131.184 94.2078 130.584 93.7438 129.816C93.2958 129.032 93.0718 128.112 93.0718 127.056V119.424C93.0718 118.352 93.2958 117.432 93.7438 116.664C94.2078 115.896 94.8558 115.304 95.6878 114.888C96.5358 114.456 97.5198 114.24 98.6398 114.24C99.7758 114.24 100.752 114.456 101.568 114.888C102.4 115.304 103.048 115.896 103.512 116.664C103.976 117.432 104.208 118.352 104.208 119.424H101.184C101.184 118.592 100.96 117.96 100.512 117.528C100.08 117.096 99.4558 116.88 98.6398 116.88C97.8238 116.88 97.1918 117.096 96.7438 117.528C96.2958 117.96 96.0718 118.584 96.0718 119.4V127.056C96.0718 127.872 96.2958 128.504 96.7438 128.952C97.1918 129.384 97.8238 129.6 98.6398 129.6C99.4558 129.6 100.08 129.384 100.512 128.952C100.96 128.504 101.184 127.872 101.184 127.056H104.208C104.208 128.096 103.976 129.008 103.512 129.792C103.048 130.576 102.4 131.184 101.568 131.616C100.752 132.032 99.7758 132.24 98.6398 132.24ZM107.894 132V129.36H111.422V117.12H107.894V114.48H117.974V117.12H114.446V129.36H117.974V132H107.894ZM120.965 132L125.381 114.48H129.245L133.685 132H130.613L129.653 127.752H124.997L124.037 132H120.965ZM125.549 125.304H129.101L128.045 120.6C127.869 119.816 127.717 119.112 127.589 118.488C127.461 117.848 127.373 117.384 127.325 117.096C127.277 117.384 127.189 117.848 127.061 118.488C126.949 119.112 126.797 119.808 126.605 120.576L125.549 125.304Z" fill="white"/>
<path d="M1 145L141 145" stroke="white" stroke-width="2"/>
<path d="M1 101H141" stroke="white" stroke-width="2"/>
</svg>
