<svg width="125" height="130" viewBox="0 0 125 130" fill="none" xmlns="http://www.w3.org/2000/svg">
<path d="M106.25 31.0284H103.125L81.8789 4.65813C80.7075 3.20481 79.222 2.0316 77.5323 1.2253C75.8426 0.418992 73.9919 0.000232731 72.1172 0H30.3379C25.2266 0 20.6309 3.08926 18.7324 7.8017L9.375 31.4666C3.99219 32.8513 0 37.6626 0 43.4397V65.1596C0 66.8739 1.39844 68.2624 3.125 68.2624H12.5C12.5 78.5444 20.8945 86.8794 31.25 86.8794C41.6055 86.8794 50 78.5444 50 68.2624H75C75 78.5444 83.3945 86.8794 93.75 86.8794C104.105 86.8794 112.5 78.5444 112.5 68.2624H121.875C123.602 68.2624 125 66.8739 125 65.1596V49.6454C125 39.3634 116.605 31.0284 106.25 31.0284ZM31.25 77.5709C26.0801 77.5709 21.875 73.3957 21.875 68.2624C21.875 63.1292 26.0801 58.9539 31.25 58.9539C36.4199 58.9539 40.625 63.1292 40.625 68.2624C40.625 73.3957 36.4199 77.5709 31.25 77.5709ZM45.3125 31.0284H22.8379L30.3379 12.4113H45.3125V31.0284ZM54.6875 31.0284V12.4113H72.1172L87.1172 31.0284H54.6875ZM93.75 77.5709C88.5801 77.5709 84.375 73.3957 84.375 68.2624C84.375 63.1292 88.5801 58.9539 93.75 58.9539C98.9199 58.9539 103.125 63.1292 103.125 68.2624C103.125 73.3957 98.9199 77.5709 93.75 77.5709Z" fill="#18879F"/>
<path d="M10.8166 117.068C9.83663 117.068 8.97563 116.886 8.23363 116.522C7.50562 116.144 6.93862 115.619 6.53262 114.947C6.14062 114.261 5.94462 113.456 5.94462 112.532V105.854C5.94462 104.916 6.14062 104.111 6.53262 103.439C6.93862 102.767 7.50562 102.249 8.23363 101.885C8.97563 101.507 9.83663 101.318 10.8166 101.318C11.8106 101.318 12.6646 101.507 13.3786 101.885C14.1066 102.249 14.6736 102.767 15.0796 103.439C15.4856 104.111 15.6886 104.916 15.6886 105.854H13.0426C13.0426 105.126 12.8466 104.573 12.4546 104.195C12.0766 103.817 11.5306 103.628 10.8166 103.628C10.1026 103.628 9.54963 103.817 9.15763 104.195C8.76563 104.573 8.56963 105.119 8.56963 105.833V112.532C8.56963 113.246 8.76563 113.799 9.15763 114.191C9.54963 114.569 10.1026 114.758 10.8166 114.758C11.5306 114.758 12.0766 114.569 12.4546 114.191C12.8466 113.799 13.0426 113.246 13.0426 112.532H15.6886C15.6886 113.442 15.4856 114.24 15.0796 114.926C14.6736 115.612 14.1066 116.144 13.3786 116.522C12.6646 116.886 11.8106 117.068 10.8166 117.068ZM17.7594 116.858L21.6234 101.528H25.0044L28.8894 116.858H26.2014L25.3614 113.141H21.2874L20.4474 116.858H17.7594ZM21.7704 110.999H24.8784L23.9544 106.883C23.8004 106.197 23.6674 105.581 23.5554 105.035C23.4434 104.475 23.3664 104.069 23.3244 103.817C23.2824 104.069 23.2054 104.475 23.0934 105.035C22.9954 105.581 22.8624 106.19 22.6944 106.862L21.7704 110.999ZM31.2122 116.858V101.528H36.0632C37.0852 101.528 37.9672 101.717 38.7092 102.095C39.4652 102.473 40.0532 103.005 40.4732 103.691C40.8932 104.363 41.1032 105.161 41.1032 106.085C41.1032 107.093 40.8442 107.982 40.3262 108.752C39.8222 109.522 39.1362 110.068 38.2682 110.39L41.3132 116.858H38.3732L35.7062 110.768H33.8372V116.858H31.2122ZM33.8372 108.458H36.0632C36.8052 108.458 37.3862 108.255 37.8062 107.849C38.2262 107.443 38.4362 106.883 38.4362 106.169C38.4362 105.441 38.2262 104.874 37.8062 104.468C37.3862 104.048 36.8052 103.838 36.0632 103.838H33.8372V108.458ZM59.6928 117.068C58.4328 117.068 57.4528 116.718 56.7528 116.018C56.0528 115.318 55.7028 114.352 55.7028 113.12V111.167C55.7028 110.229 55.9338 109.459 56.3958 108.857C56.8718 108.255 57.5438 107.884 58.4118 107.744L58.1388 108.311C57.7048 107.709 57.3688 107.121 57.1308 106.547C56.9068 105.973 56.7948 105.406 56.7948 104.846C56.7948 104.146 56.9628 103.537 57.2988 103.019C57.6348 102.487 58.1038 102.074 58.7058 101.78C59.3078 101.472 60.0148 101.318 60.8268 101.318C61.6668 101.318 62.3948 101.479 63.0108 101.801C63.6408 102.123 64.1238 102.571 64.4598 103.145C64.8098 103.705 64.9848 104.37 64.9848 105.14H62.5488C62.5488 104.804 62.4788 104.51 62.3388 104.258C62.1988 104.006 61.9958 103.817 61.7298 103.691C61.4778 103.551 61.1768 103.481 60.8268 103.481C60.4908 103.481 60.1968 103.544 59.9448 103.67C59.6928 103.796 59.4968 103.978 59.3568 104.216C59.2308 104.454 59.1678 104.734 59.1678 105.056C59.1678 105.392 59.2518 105.763 59.4198 106.169C59.6018 106.575 59.8468 106.988 60.1548 107.408L63.0528 111.503L64.2078 109.298H66.7488L64.5018 113.561L66.8538 116.858H64.2288L63.2418 115.472C62.2618 116.536 61.0788 117.068 59.6928 117.068ZM59.9028 114.905C60.3088 114.905 60.6868 114.793 61.0368 114.569C61.3868 114.345 61.6878 114.037 61.9398 113.645L59.0628 109.613C58.7688 109.725 58.5518 109.914 58.4118 110.18C58.2718 110.432 58.2018 110.761 58.2018 111.167V113.12C58.2018 113.68 58.3488 114.121 58.6428 114.443C58.9508 114.751 59.3708 114.905 59.9028 114.905ZM86.3674 117.068C85.3874 117.068 84.5264 116.886 83.7844 116.522C83.0564 116.144 82.4894 115.619 82.0834 114.947C81.6914 114.261 81.4954 113.456 81.4954 112.532V105.854C81.4954 104.916 81.6914 104.111 82.0834 103.439C82.4894 102.767 83.0564 102.249 83.7844 101.885C84.5264 101.507 85.3874 101.318 86.3674 101.318C87.3614 101.318 88.2154 101.507 88.9294 101.885C89.6574 102.249 90.2244 102.767 90.6304 103.439C91.0364 104.111 91.2394 104.916 91.2394 105.854H88.5934C88.5934 105.126 88.3974 104.573 88.0054 104.195C87.6274 103.817 87.0814 103.628 86.3674 103.628C85.6534 103.628 85.1004 103.817 84.7084 104.195C84.3164 104.573 84.1204 105.119 84.1204 105.833V112.532C84.1204 113.246 84.3164 113.799 84.7084 114.191C85.1004 114.569 85.6534 114.758 86.3674 114.758C87.0814 114.758 87.6274 114.569 88.0054 114.191C88.3974 113.799 88.5934 113.246 88.5934 112.532H91.2394C91.2394 113.442 91.0364 114.24 90.6304 114.926C90.2244 115.612 89.6574 116.144 88.9294 116.522C88.2154 116.886 87.3614 117.068 86.3674 117.068ZM94.4652 116.858V114.548H97.5522V103.838H94.4652V101.528H103.285V103.838H100.198V114.548H103.285V116.858H94.4652ZM105.902 116.858L109.766 101.528H113.147L117.032 116.858H114.344L113.504 113.141H109.43L108.59 116.858H105.902ZM109.913 110.999H113.021L112.097 106.883C111.943 106.197 111.81 105.581 111.698 105.035C111.586 104.475 111.509 104.069 111.467 103.817C111.425 104.069 111.348 104.475 111.236 105.035C111.138 105.581 111.005 106.19 110.837 106.862L109.913 110.999Z" fill="#18879F"/>
<path d="M0.886524 128.546L125 128.546" stroke="#18879F" stroke-width="2"/>
<path d="M0.886524 89.539H125" stroke="#18879F" stroke-width="2"/>
</svg>
